<?xml version="1.0" encoding="UTF-8" standalone="no"?>
<!DOCTYPE svg PUBLIC "-//W3C//DTD SVG 1.1//EN"
 "http://www.w3.org/Graphics/SVG/1.1/DTD/svg11.dtd">
<!-- Generated by graphviz version 2.43.0 (0)
 -->
<!-- Title: triangle_geo Pages: 1 -->
<svg width="109pt" height="210pt"
 viewBox="0.00 0.00 108.50 210.00" xmlns="http://www.w3.org/2000/svg" xmlns:xlink="http://www.w3.org/1999/xlink">
<g id="graph0" class="graph" transform="scale(1 1) rotate(0) translate(4 206)">
<title>triangle_geo</title>
<!-- a -->
<g id="node1" class="node">
<title>a</title>
<text text-anchor="middle" x="55.5" y="-180.3" font-family="Times,serif" font-size="14.00" fill="#2980b9">A</text>
</g>
<!-- b -->
<g id="node2" class="node">
<title>b</title>
<text text-anchor="middle" x="13.5" y="-97.3" font-family="Times,serif" font-size="14.00" fill="#2980b9">B</text>
</g>
<!-- a&#45;&gt;b -->
<g id="edge1" class="edge">
<title>a&#45;&gt;b</title>
<path fill="none" stroke="#27ae60" d="M42.14,-175.76C32.53,-169.73 20.28,-160.18 14.5,-148 11.82,-142.36 10.69,-135.88 10.4,-129.59"/>
<polygon fill="#27ae60" stroke="#27ae60" points="13.91,-129.45 10.6,-119.38 6.91,-129.31 13.91,-129.45"/>
<text text-anchor="middle" x="28" y="-140" font-family="Times,serif" font-size="10.00">Q_ab</text>
</g>
<!-- c -->
<g id="node3" class="node">
<title>c</title>
<text text-anchor="middle" x="55.5" y="-14.3" font-family="Times,serif" font-size="14.00" fill="#2980b9">C</text>
</g>
<!-- a&#45;&gt;c -->
<!-- b&#45;&gt;c -->
<g id="edge2" class="edge">
<title>b&#45;&gt;c</title>
<path fill="none" stroke="#27ae60" d="M11.1,-82.61C10.63,-73.65 11.28,-62.79 15.5,-54 19.52,-45.63 26.56,-38.43 33.62,-32.78"/>
<polygon fill="#27ae60" stroke="#27ae60" points="35.72,-35.58 41.75,-26.87 31.6,-29.92 35.72,-35.58"/>
<text text-anchor="middle" x="28.5" y="-57" font-family="Times,serif" font-size="10.00">Q_bc</text>
</g>
<!-- c&#45;&gt;a -->
<g id="edge3" class="edge">
<title>c&#45;&gt;a</title>
<path fill="none" stroke="#e74c3c" d="M63.83,-36.05C66.14,-41.64 68.34,-47.96 69.5,-54 77.4,-95.02 77.4,-106.98 69.5,-148 68.97,-150.74 68.23,-153.53 67.37,-156.29"/>
<polygon fill="#e74c3c" stroke="#e74c3c" points="63.98,-155.35 63.83,-165.95 70.55,-157.76 63.98,-155.35"/>
<text text-anchor="middle" x="88" y="-98.5" font-family="Times,serif" font-size="10.00">Q_ca</text>
</g>
</g>
</svg>
